%TF.GenerationSoftware,KiCad,Pcbnew,10.0.0*%
%TF.CreationDate,2026-07-02T20:35:19+08:00*%
%TF.ProjectId,badge,62616467-652e-46b6-9963-61645f706362,rev?*%
%TF.SameCoordinates,Original*%
%TF.FileFunction,Copper,L1,Top*%
%TF.FilePolarity,Positive*%
%FSLAX46Y46*%
G04 Gerber Fmt 4.6, Leading zero omitted, Abs format (unit mm)*
G04 Created by KiCad (PCBNEW 10.0.0) date 2026-07-02 20:35:19*
%MOMM*%
%LPD*%
G01*
G04 APERTURE LIST*
G04 Aperture macros list*
%AMRoundRect*
0 Rectangle with rounded corners*
0 $1 Rounding radius*
0 $2 $3 $4 $5 $6 $7 $8 $9 X,Y pos of 4 corners*
0 Add a 4 corners polygon primitive as box body*
4,1,4,$2,$3,$4,$5,$6,$7,$8,$9,$2,$3,0*
0 Add four circle primitives for the rounded corners*
1,1,$1+$1,$2,$3*
1,1,$1+$1,$4,$5*
1,1,$1+$1,$6,$7*
1,1,$1+$1,$8,$9*
0 Add four rect primitives between the rounded corners*
20,1,$1+$1,$2,$3,$4,$5,0*
20,1,$1+$1,$4,$5,$6,$7,0*
20,1,$1+$1,$6,$7,$8,$9,0*
20,1,$1+$1,$8,$9,$2,$3,0*%
G04 Aperture macros list end*
%ADD10C,0.200000*%
%TA.AperFunction,EtchedComponent*%
%ADD11C,0.300000*%
%TD*%
%TA.AperFunction,SMDPad,CuDef*%
%ADD12C,0.300000*%
%TD*%
%TA.AperFunction,SMDPad,CuDef*%
%ADD13RoundRect,0.218750X-0.218750X-0.256250X0.218750X-0.256250X0.218750X0.256250X-0.218750X0.256250X0*%
%TD*%
%TA.AperFunction,SMDPad,CuDef*%
%ADD14RoundRect,0.225000X0.225000X0.250000X-0.225000X0.250000X-0.225000X-0.250000X0.225000X-0.250000X0*%
%TD*%
%TA.AperFunction,SMDPad,CuDef*%
%ADD15R,0.400000X0.280000*%
%TD*%
%TA.AperFunction,SMDPad,CuDef*%
%ADD16R,0.400000X0.220000*%
%TD*%
%TA.AperFunction,SMDPad,CuDef*%
%ADD17R,0.220000X0.400000*%
%TD*%
%TA.AperFunction,SMDPad,CuDef*%
%ADD18RoundRect,0.200000X-0.200000X-0.275000X0.200000X-0.275000X0.200000X0.275000X-0.200000X0.275000X0*%
%TD*%
%TA.AperFunction,ViaPad*%
%ADD19C,0.800000*%
%TD*%
%TA.AperFunction,ViaPad*%
%ADD20C,0.600000*%
%TD*%
%TA.AperFunction,Conductor*%
%ADD21C,0.200000*%
%TD*%
G04 APERTURE END LIST*
D10*
X89023989Y-76096633D02*
X88991860Y-76097223D01*
X88954984Y-76097866D01*
X88907155Y-76098656D01*
X88850563Y-76099530D01*
X88819666Y-76099979D01*
X88787400Y-76100425D01*
X88754038Y-76100861D01*
X88719855Y-76101279D01*
X88685124Y-76101670D01*
X88650120Y-76102027D01*
X88615115Y-76102341D01*
X88580384Y-76102606D01*
X88546201Y-76102813D01*
X88512839Y-76102954D01*
X88480573Y-76103021D01*
X88464936Y-76103024D01*
X88449676Y-76103006D01*
X88434826Y-76102966D01*
X88420422Y-76102902D01*
X88406496Y-76102814D01*
X88393084Y-76102701D01*
X88380220Y-76102561D01*
X88367937Y-76102394D01*
X88356271Y-76102199D01*
X88345255Y-76101974D01*
X88334924Y-76101719D01*
X88325311Y-76101433D01*
X88316452Y-76101114D01*
X88308379Y-76100762D01*
X88301129Y-76100377D01*
X88297822Y-76100170D01*
X88294734Y-76099955D01*
X88291868Y-76099731D01*
X88289228Y-76099498D01*
X88286820Y-76099255D01*
X88284647Y-76099003D01*
X88282714Y-76098742D01*
X88281025Y-76098470D01*
X88279584Y-76098189D01*
X88278395Y-76097898D01*
X88277897Y-76097749D01*
X88277463Y-76097597D01*
X88277095Y-76097443D01*
X88276792Y-76097286D01*
X88276556Y-76097127D01*
X88276386Y-76096965D01*
X88276284Y-76096800D01*
X88276250Y-76096633D01*
X91300000Y-74900000D02*
X91297391Y-74907145D01*
X91294768Y-74914270D01*
X91292133Y-74921371D01*
X91289484Y-74928453D01*
X91286822Y-74935510D01*
X91284146Y-74942548D01*
X91281458Y-74949562D01*
X91278756Y-74956557D01*
X91276042Y-74963528D01*
X91273314Y-74970479D01*
X91270574Y-74977406D01*
X91267820Y-74984314D01*
X91265054Y-74991198D01*
X91262274Y-74998062D01*
X91259483Y-75004903D01*
X91256677Y-75011725D01*
X91253860Y-75018523D01*
X91251029Y-75025301D01*
X91248187Y-75032056D01*
X91245331Y-75038791D01*
X91242463Y-75045503D01*
X91239581Y-75052196D01*
X91236688Y-75058865D01*
X91233782Y-75065515D01*
X91230864Y-75072141D01*
X91227933Y-75078748D01*
X91224990Y-75085332D01*
X91222034Y-75091896D01*
X91219066Y-75098437D01*
X91216085Y-75104959D01*
X91213093Y-75111457D01*
X91210088Y-75117937D01*
X91207071Y-75124393D01*
X91204042Y-75130830D01*
X91201001Y-75137244D01*
X91197947Y-75143638D01*
X91194882Y-75150010D01*
X91191804Y-75156362D01*
X91188715Y-75162692D01*
X91185613Y-75169002D01*
X91182500Y-75175290D01*
X91179374Y-75181558D01*
X91176237Y-75187803D01*
X91173088Y-75194030D01*
X91169927Y-75200233D01*
X91166754Y-75206417D01*
X91163570Y-75212579D01*
X91160373Y-75218722D01*
X91157166Y-75224842D01*
X91153946Y-75230943D01*
X91150715Y-75237021D01*
X91147472Y-75243080D01*
X91144219Y-75249117D01*
X91140952Y-75255135D01*
X91137676Y-75261130D01*
X91134386Y-75267106D01*
X91131087Y-75273060D01*
X91127775Y-75278995D01*
X91124452Y-75284908D01*
X91121118Y-75290802D01*
X91117772Y-75296673D01*
X91114415Y-75302525D01*
X91111047Y-75308356D01*
X91107668Y-75314167D01*
X91104278Y-75319956D01*
X91100875Y-75325727D01*
X91097463Y-75331475D01*
X91094039Y-75337204D01*
X91090604Y-75342912D01*
X91087158Y-75348600D01*
X91083701Y-75354267D01*
X91080232Y-75359914D01*
X91076754Y-75365540D01*
X91073263Y-75371147D01*
X91069763Y-75376732D01*
X91066251Y-75382299D01*
X91062729Y-75387844D01*
X91059195Y-75393369D01*
X91055651Y-75398874D01*
X91052096Y-75404359D01*
X91048530Y-75409823D01*
X91044954Y-75415268D01*
X91041367Y-75420691D01*
X91037769Y-75426096D01*
X91034161Y-75431480D01*
X91030541Y-75436844D01*
X91026912Y-75442187D01*
X91023272Y-75447512D01*
X91019621Y-75452815D01*
X91015960Y-75458099D01*
X91012288Y-75463362D01*
X91008606Y-75468607D01*
X91004914Y-75473830D01*
X91001211Y-75479035D01*
X90997498Y-75484218D01*
X90993774Y-75489383D01*
X90990040Y-75494526D01*
X90986295Y-75499651D01*
X90982541Y-75504756D01*
X90978776Y-75509841D01*
X90975001Y-75514905D01*
X90971216Y-75519951D01*
X90967421Y-75524976D01*
X90963615Y-75529982D01*
X90959800Y-75534968D01*
X90955973Y-75539935D01*
X90952138Y-75544881D01*
X90948292Y-75549809D01*
X90944436Y-75554716D01*
X90940570Y-75559604D01*
X90936694Y-75564472D01*
X90932808Y-75569321D01*
X90928912Y-75574149D01*
X90925006Y-75578959D01*
X90921091Y-75583749D01*
X90917165Y-75588520D01*
X90913230Y-75593271D01*
X90909284Y-75598003D01*
X90905329Y-75602714D01*
X90901364Y-75607407D01*
X90897390Y-75612080D01*
X90893405Y-75616735D01*
X90889411Y-75621369D01*
X90885407Y-75625984D01*
X90881394Y-75630580D01*
X90877370Y-75635157D01*
X90873337Y-75639714D01*
X90869295Y-75644252D01*
X90865243Y-75648770D01*
X90861181Y-75653270D01*
X90857110Y-75657750D01*
X90853029Y-75662211D01*
X90848939Y-75666652D01*
X90844839Y-75671075D01*
X90840730Y-75675478D01*
X90836610Y-75679863D01*
X90832482Y-75684228D01*
X90828344Y-75688574D01*
X90824198Y-75692900D01*
X90820041Y-75697208D01*
X90815875Y-75701497D01*
X90811700Y-75705767D01*
X90807515Y-75710017D01*
X90803321Y-75714249D01*
X90799118Y-75718461D01*
X90794905Y-75722655D01*
X90790684Y-75726829D01*
X90786452Y-75730985D01*
X90782212Y-75735122D01*
X90777963Y-75739240D01*
X90773704Y-75743338D01*
X90769436Y-75747418D01*
X90765159Y-75751479D01*
X90760873Y-75755522D01*
X90756577Y-75759545D01*
X90752273Y-75763549D01*
X90747959Y-75767535D01*
X90743636Y-75771502D01*
X90739305Y-75775450D01*
X90734964Y-75779379D01*
X90730614Y-75783289D01*
X90726255Y-75787181D01*
X90721887Y-75791054D01*
X90717510Y-75794908D01*
X90713124Y-75798743D01*
X90708729Y-75802560D01*
X90704326Y-75806358D01*
X90699913Y-75810138D01*
X90695491Y-75813898D01*
X90691060Y-75817640D01*
X90686621Y-75821363D01*
X90682172Y-75825068D01*
X90677715Y-75828754D01*
X90673249Y-75832422D01*
X90668774Y-75836070D01*
X90664290Y-75839701D01*
X90659797Y-75843312D01*
X90655296Y-75846906D01*
X90650786Y-75850480D01*
X90646267Y-75854036D01*
X90641739Y-75857573D01*
X90637202Y-75861092D01*
X90632657Y-75864593D01*
X90628103Y-75868075D01*
X90623540Y-75871538D01*
X90618969Y-75874983D01*
X90614389Y-75878409D01*
X90609800Y-75881817D01*
X90605203Y-75885206D01*
X90600596Y-75888577D01*
X90595982Y-75891930D01*
X90591358Y-75895264D01*
X90586726Y-75898580D01*
X90582085Y-75901877D01*
X90577436Y-75905156D01*
X90572778Y-75908416D01*
X90568112Y-75911658D01*
X90563437Y-75914882D01*
X90558753Y-75918087D01*
X90554061Y-75921274D01*
X90549361Y-75924442D01*
X90544652Y-75927592D01*
X90539934Y-75930724D01*
X90535208Y-75933838D01*
X90530473Y-75936933D01*
X90525730Y-75940009D01*
X90520978Y-75943068D01*
X90516218Y-75946108D01*
X90511450Y-75949130D01*
X90506673Y-75952133D01*
X90501887Y-75955118D01*
X90497093Y-75958085D01*
X90492291Y-75961034D01*
X90487480Y-75963964D01*
X90482661Y-75966876D01*
X90477834Y-75969769D01*
X90472998Y-75972645D01*
X90468154Y-75975502D01*
X90463301Y-75978341D01*
X90458440Y-75981161D01*
X90453570Y-75983963D01*
X90448693Y-75986747D01*
X90443807Y-75989513D01*
X90438913Y-75992260D01*
X90434010Y-75994990D01*
X90429099Y-75997701D01*
X90419252Y-76003068D01*
X90409372Y-76008362D01*
X90399460Y-76013583D01*
X90389514Y-76018731D01*
X90379535Y-76023806D01*
X90369523Y-76028808D01*
X90359478Y-76033737D01*
X90349401Y-76038593D01*
X90339291Y-76043376D01*
X90329148Y-76048086D01*
X90318973Y-76052723D01*
X90308765Y-76057287D01*
X90298524Y-76061778D01*
X90288252Y-76066196D01*
X90277946Y-76070541D01*
X90267609Y-76074812D01*
X90257239Y-76079010D01*
X90246837Y-76083135D01*
X90236403Y-76087187D01*
X90225937Y-76091166D01*
X90215438Y-76095071D01*
X90204908Y-76098902D01*
X90194346Y-76102660D01*
X90183751Y-76106345D01*
X90173125Y-76109956D01*
X90162467Y-76113493D01*
X90151778Y-76116957D01*
X90141056Y-76120347D01*
X90130303Y-76123663D01*
X90119519Y-76126905D01*
X90108702Y-76130072D01*
X90097855Y-76133166D01*
X90086975Y-76136186D01*
X90076065Y-76139131D01*
X90065123Y-76142002D01*
X90054150Y-76144798D01*
X90043145Y-76147520D01*
X90032110Y-76150167D01*
X90021043Y-76152739D01*
X90009945Y-76155236D01*
X89998816Y-76157659D01*
X89987657Y-76160006D01*
X89976466Y-76162278D01*
X89965245Y-76164474D01*
X89953992Y-76166595D01*
X89942710Y-76168641D01*
X89931396Y-76170610D01*
X89920052Y-76172504D01*
X89908677Y-76174322D01*
X89897272Y-76176063D01*
X89885837Y-76177729D01*
X89874371Y-76179317D01*
X89862875Y-76180830D01*
X89851349Y-76182265D01*
X89839793Y-76183624D01*
X89828207Y-76184905D01*
X89816591Y-76186110D01*
X89804945Y-76187237D01*
X89793269Y-76188286D01*
X89781564Y-76189258D01*
X89769829Y-76190152D01*
X89758064Y-76190968D01*
X89746270Y-76191706D01*
X89734447Y-76192365D01*
X89722595Y-76192946D01*
X89710713Y-76193448D01*
X89698803Y-76193871D01*
X89686863Y-76194216D01*
X89674895Y-76194481D01*
X89662898Y-76194666D01*
X89650872Y-76194773D01*
X89638818Y-76194799D01*
X89626735Y-76194745D01*
X89614624Y-76194611D01*
X89602485Y-76194397D01*
X89590318Y-76194102D01*
X89578122Y-76193727D01*
X89565899Y-76193270D01*
X89553649Y-76192733D01*
X89541370Y-76192114D01*
X89529064Y-76191414D01*
X89516731Y-76190632D01*
X89504371Y-76189768D01*
X89491984Y-76188821D01*
X89479570Y-76187793D01*
X89467129Y-76186682D01*
X89454661Y-76185488D01*
X89442167Y-76184211D01*
X89429646Y-76182852D01*
X89417100Y-76181408D01*
X89404527Y-76179882D01*
X89391929Y-76178271D01*
X89379305Y-76176576D01*
X89366655Y-76174798D01*
X89353980Y-76172935D01*
X89341279Y-76170987D01*
X89328554Y-76168954D01*
X89315804Y-76166837D01*
X89303029Y-76164634D01*
X89290230Y-76162345D01*
X89277406Y-76159971D01*
X89264558Y-76157512D01*
X89251687Y-76154966D01*
X89238791Y-76152333D01*
X89225872Y-76149615D01*
X89212930Y-76146809D01*
X89199964Y-76143917D01*
X89186976Y-76140937D01*
X89173965Y-76137870D01*
X89160931Y-76134716D01*
X89147875Y-76131473D01*
X89134797Y-76128143D01*
X89121697Y-76124724D01*
X89108575Y-76121218D01*
X89095432Y-76117622D01*
X89082267Y-76113938D01*
X89069082Y-76110165D01*
X89055876Y-76106302D01*
X89042649Y-76102350D01*
X89029402Y-76098309D01*
X89023989Y-76096633D01*
%TO.C,*%
D11*
X77156750Y-101142750D02*
X77156750Y-78445250D01*
X78156750Y-100142750D02*
X78156750Y-79445250D01*
X78158750Y-77445250D02*
X85546750Y-77445250D01*
X79156750Y-99145250D02*
X79156750Y-80445250D01*
X79159250Y-78445250D02*
X85546750Y-78445250D01*
X80156750Y-79445250D02*
X85546750Y-79445250D01*
X80156750Y-81445250D02*
X80156750Y-98142750D01*
X81156750Y-82445250D02*
X81156750Y-97142750D01*
X81156750Y-99145250D02*
X92853750Y-99144750D01*
X82156750Y-98145250D02*
X91854250Y-98144750D01*
X85546750Y-77445250D02*
X85770750Y-77449250D01*
X85546750Y-78445250D02*
X85913250Y-78514750D01*
X85546750Y-80445250D02*
X81159250Y-80445250D01*
X85573250Y-79445250D02*
X85546750Y-79445250D01*
X85606750Y-81445250D02*
X82159250Y-81445250D01*
X85642750Y-79449750D02*
X85573250Y-79445250D01*
X85711750Y-79458750D02*
X85780250Y-79472750D01*
X85770750Y-77449250D02*
X88099750Y-78375750D01*
X85817750Y-80484750D02*
X85546750Y-80445250D01*
X85847250Y-79491250D02*
X85711750Y-79458750D01*
X85913250Y-78514750D02*
X88089250Y-79371750D01*
X85913250Y-79514750D02*
X85847250Y-79491250D01*
X85913250Y-80514750D02*
X85817750Y-80484750D01*
X88099750Y-80375750D02*
X85847250Y-79491250D01*
X88099750Y-81375750D02*
X85913250Y-80514750D01*
X88276250Y-76082250D02*
X88276250Y-76992750D01*
X88466250Y-78445250D02*
X94856750Y-78445250D01*
X88466250Y-79445250D02*
X93856750Y-79445250D01*
X88726750Y-77445250D02*
X95806250Y-77445250D01*
X91856750Y-81445250D02*
X88466250Y-81445250D01*
X92856750Y-80445250D02*
X88466250Y-80445250D01*
X92856750Y-97145250D02*
X92856750Y-82447750D01*
X93856750Y-98145250D02*
X93856750Y-81447750D01*
X93856750Y-100145250D02*
X80156750Y-100145250D01*
X94853750Y-101145250D02*
X79156750Y-101145250D01*
X94856750Y-80445250D02*
X94856750Y-99144750D01*
X95854250Y-102144750D02*
X78156750Y-102145250D01*
X95856750Y-77445250D02*
X95806250Y-77445250D01*
X95856750Y-79447750D02*
X95856750Y-100145250D01*
X96856750Y-78447750D02*
X96856750Y-101145250D01*
X77156750Y-78445250D02*
G75*
G02*
X78158750Y-77445247I997510J2500D01*
G01*
X78156750Y-79445250D02*
G75*
G02*
X79159250Y-78445258I998010J1990D01*
G01*
X78156750Y-102145250D02*
G75*
G02*
X77156760Y-101142750I-2850J997150D01*
G01*
X79156750Y-80445250D02*
G75*
G02*
X80156750Y-79445250I1000000J0D01*
G01*
X79156750Y-101145250D02*
G75*
G02*
X78156760Y-100142750I-2850J997150D01*
G01*
X80156750Y-81445250D02*
G75*
G02*
X81159250Y-80445243I1000010J0D01*
G01*
X80156750Y-100145250D02*
G75*
G02*
X79156750Y-99145250I0J1000000D01*
G01*
X81156750Y-82445250D02*
G75*
G02*
X82159250Y-81445243I1000010J0D01*
G01*
X81156750Y-99145250D02*
G75*
G02*
X80156743Y-98142750I0J1000010D01*
G01*
X82156750Y-98145250D02*
G75*
G02*
X81156743Y-97142750I0J1000010D01*
G01*
X88466250Y-78445250D02*
G75*
G02*
X88099750Y-78375750I-60087J684237D01*
G01*
X88466250Y-79445250D02*
G75*
G02*
X88089250Y-79371750I-51275J740611D01*
G01*
X88466250Y-80445250D02*
G75*
G02*
X88099750Y-80375750I-57291J698980D01*
G01*
X88466250Y-81445250D02*
G75*
G02*
X88099750Y-81375750I-57291J698980D01*
G01*
X88726750Y-77445250D02*
G75*
G02*
X88276249Y-76992750I-4484J446041D01*
G01*
X91856750Y-81445250D02*
G75*
G02*
X92856750Y-82447750I-3J-1000006D01*
G01*
X92856750Y-80445250D02*
G75*
G02*
X93856750Y-81447750I-3J-1000006D01*
G01*
X92856750Y-97145250D02*
G75*
G02*
X91854250Y-98144750I-999154J-352D01*
G01*
X93856750Y-79445250D02*
G75*
G02*
X94856750Y-80445250I1J-999999D01*
G01*
X93856750Y-98145250D02*
G75*
G02*
X92853750Y-99144751I-999158J-350D01*
G01*
X94856750Y-78445250D02*
G75*
G02*
X95856750Y-79447750I1641J-998366D01*
G01*
X94856750Y-99144750D02*
G75*
G02*
X93856750Y-100145249I-999646J-853D01*
G01*
X95806250Y-77445250D02*
G75*
G02*
X96856749Y-78447750I9368J-1041832D01*
G01*
X95856750Y-100145250D02*
G75*
G02*
X94853750Y-101145251I-998017J-1994D01*
G01*
X96856750Y-101145250D02*
G75*
G02*
X95854250Y-102144749I-997166J-2345D01*
G01*
%TD*%
D12*
%TO.P,,1*%
%TO.N,unconnected-(U1-LA-Pad1)*%
X88270250Y-76072250D03*
%TD*%
D13*
%TO.P,D1,1,K_1*%
%TO.N,Net-(D1-K)*%
X104925000Y-79500000D03*
%TO.P,D1,2,A_2*%
%TO.N,Net-(D1-A)*%
X106500000Y-79500000D03*
%TD*%
D14*
%TO.P,C1,1*%
%TO.N,Net-(U1-VCC)*%
X91500000Y-71500000D03*
%TO.P,C1,2*%
%TO.N,Net-(D1-K)*%
X89950000Y-71500000D03*
%TD*%
D15*
%TO.P,U1,1,LA_1*%
%TO.N,unconnected-(U1-LA-Pad1)*%
X91300000Y-74900000D03*
D16*
%TO.P,U1,2,VSS_2*%
%TO.N,Net-(D1-K)*%
X91300000Y-74400000D03*
%TO.P,U1,3,SCL_3*%
%TO.N,unconnected-(U1-SCL-Pad3)*%
X91300000Y-73900000D03*
D17*
%TO.P,U1,4,FD_4*%
%TO.N,unconnected-(U1-FD-Pad4)*%
X90700000Y-73800000D03*
D16*
%TO.P,U1,5,SDA_5*%
%TO.N,unconnected-(U1-SDA-Pad5)*%
X90100000Y-73900000D03*
%TO.P,U1,6,VCC_6*%
%TO.N,Net-(U1-VCC)*%
X90100000Y-74400000D03*
%TO.P,U1,7,VOUT_7*%
X90100000Y-74900000D03*
D17*
%TO.P,U1,8,LB_8*%
%TO.N,unconnected-(U1-LB-Pad8)*%
X90700000Y-75000000D03*
%TD*%
D18*
%TO.P,R1,1*%
%TO.N,Net-(U1-VCC)*%
X93900000Y-71500000D03*
%TO.P,R1,2*%
%TO.N,Net-(D1-A)*%
X95550000Y-71500000D03*
%TD*%
D19*
%TO.N,*%
X85600000Y-81445250D03*
D20*
%TO.N,unconnected-(U1-LB-Pad8)*%
X85100000Y-75400000D03*
%TD*%
%TO.N,unconnected-(U1-LB-Pad8)*%
D21*
X90700000Y-75090000D02*
X90700000Y-75000000D01*
X90390000Y-75400000D02*
X90700000Y-75090000D01*
X85100000Y-75400000D02*
X90390000Y-75400000D01*
%TO.N,Net-(D1-K)*%
X104925000Y-79500000D02*
X102500000Y-79500000D01*
X91800000Y-74310000D02*
X91710000Y-74400000D01*
X91710000Y-74400000D02*
X91300000Y-74400000D01*
X102500000Y-79500000D02*
X96000000Y-73000000D01*
X92300000Y-73000000D02*
X91800000Y-73500000D01*
X89950000Y-71500000D02*
X91800000Y-73350000D01*
X91800000Y-73500000D02*
X91800000Y-74310000D01*
X96000000Y-73000000D02*
X92300000Y-73000000D01*
X91800000Y-73350000D02*
X91800000Y-73500000D01*
%TO.N,Net-(D1-A)*%
X106500000Y-79500000D02*
X103500000Y-76500000D01*
X103500000Y-76500000D02*
X100500000Y-76500000D01*
X100500000Y-76500000D02*
X95500000Y-71500000D01*
%TO.N,Net-(U1-VCC)*%
X89501304Y-70725000D02*
X92225000Y-70725000D01*
X90100000Y-74500000D02*
X90000000Y-74400000D01*
X90000000Y-74400000D02*
X89690000Y-74400000D01*
X89200000Y-73910000D02*
X89200000Y-71026304D01*
X90100000Y-74400000D02*
X90100000Y-74900000D01*
X91500000Y-71500000D02*
X93000000Y-71500000D01*
X89690000Y-74400000D02*
X89200000Y-73910000D01*
X92225000Y-70725000D02*
X93000000Y-71500000D01*
X89200000Y-71026304D02*
X89501304Y-70725000D01*
X93000000Y-71500000D02*
X93950000Y-71500000D01*
%TD*%
M02*
