%TF.GenerationSoftware,KiCad,Pcbnew,10.0.0*%
%TF.CreationDate,2026-07-02T20:35:19+08:00*%
%TF.ProjectId,badge,62616467-652e-46b6-9963-61645f706362,rev?*%
%TF.SameCoordinates,Original*%
%TF.FileFunction,Profile,NP*%
%FSLAX46Y46*%
G04 Gerber Fmt 4.6, Leading zero omitted, Abs format (unit mm)*
G04 Created by KiCad (PCBNEW 10.0.0) date 2026-07-02 20:35:19*
%MOMM*%
%LPD*%
G01*
G04 APERTURE LIST*
%TA.AperFunction,Profile*%
%ADD10C,0.926040*%
%TD*%
G04 APERTURE END LIST*
D10*
X89200000Y-67000000D02*
X89832131Y-67067746D01*
X90413268Y-67175924D01*
X90931492Y-67327251D01*
X91423430Y-67495986D01*
X91931663Y-67658384D01*
X92984944Y-67987097D01*
X93523958Y-68164880D01*
X94067196Y-68359257D01*
X94611642Y-68575963D01*
X95154279Y-68820730D01*
X95692088Y-69099291D01*
X96222053Y-69417380D01*
X96483151Y-69593039D01*
X96741156Y-69780731D01*
X96995691Y-69981170D01*
X97246379Y-70195075D01*
X97492842Y-70423162D01*
X97734705Y-70666147D01*
X97971589Y-70924748D01*
X98203116Y-71199680D01*
X98428911Y-71491661D01*
X98648596Y-71801407D01*
X98861794Y-72129635D01*
X99068127Y-72477062D01*
X99444876Y-73137387D01*
X99769574Y-73694516D01*
X100050521Y-74156294D01*
X100296013Y-74530565D01*
X100408057Y-74687337D01*
X100514348Y-74825175D01*
X100615925Y-74945059D01*
X100713825Y-75047969D01*
X100809085Y-75134887D01*
X100902741Y-75206792D01*
X100995832Y-75264666D01*
X101089395Y-75309490D01*
X101184466Y-75342243D01*
X101282083Y-75363907D01*
X101383283Y-75375462D01*
X101489104Y-75377888D01*
X101600583Y-75372168D01*
X101718757Y-75359280D01*
X101979337Y-75315927D01*
X102626477Y-75186366D01*
X103029632Y-75115849D01*
X103496906Y-75051967D01*
X103986017Y-75007205D01*
X104450232Y-74988395D01*
X104673522Y-74988532D01*
X104891211Y-74994931D01*
X105103507Y-75007517D01*
X105310615Y-75026212D01*
X105512745Y-75050943D01*
X105710103Y-75081633D01*
X105902897Y-75118207D01*
X106091335Y-75160591D01*
X106275623Y-75208707D01*
X106455969Y-75262481D01*
X106632582Y-75321838D01*
X106805667Y-75386701D01*
X107142087Y-75532647D01*
X107466890Y-75699714D01*
X107781734Y-75887300D01*
X108088281Y-76094801D01*
X108388188Y-76321613D01*
X108683117Y-76567133D01*
X108974726Y-76830757D01*
X109264675Y-77111881D01*
X109402660Y-77254668D01*
X109527293Y-77393608D01*
X109639102Y-77529078D01*
X109738615Y-77661456D01*
X109826361Y-77791118D01*
X109902867Y-77918442D01*
X109968661Y-78043805D01*
X110024271Y-78167583D01*
X110070226Y-78290155D01*
X110107053Y-78411897D01*
X110135281Y-78533186D01*
X110155437Y-78654400D01*
X110168049Y-78775916D01*
X110173646Y-78898111D01*
X110165904Y-79146046D01*
X110136436Y-79401223D01*
X110089466Y-79666658D01*
X109959916Y-80240376D01*
X109811045Y-80891337D01*
X109739925Y-81253327D01*
X109676647Y-81643680D01*
X109629680Y-81838155D01*
X109548352Y-82016657D01*
X109435115Y-82180109D01*
X109292419Y-82329436D01*
X109122718Y-82465562D01*
X108928463Y-82589411D01*
X108712104Y-82701906D01*
X108476095Y-82803973D01*
X107954930Y-82980516D01*
X107384581Y-83126432D01*
X106784661Y-83249114D01*
X106174785Y-83355956D01*
X105003613Y-83551686D01*
X104481546Y-83655360D01*
X104027974Y-83772765D01*
X103833004Y-83838926D01*
X103662512Y-83911292D01*
X103518952Y-83990787D01*
X103404774Y-84078335D01*
X103322430Y-84174860D01*
X103274372Y-84281286D01*
X103263052Y-84398537D01*
X103290920Y-84527538D01*
X103386299Y-84851061D01*
X103479414Y-85276272D01*
X103659458Y-86403996D01*
X103832257Y-87855188D01*
X103999021Y-89574329D01*
X104319268Y-93594374D01*
X104629856Y-98019969D01*
X104691571Y-99113948D01*
X104722808Y-100162363D01*
X104724473Y-101175173D01*
X104697471Y-102162336D01*
X104642708Y-103133807D01*
X104561089Y-104099545D01*
X104320904Y-106053651D01*
X103984158Y-108104313D01*
X103558093Y-110331191D01*
X102466976Y-115632228D01*
X102295964Y-116342653D01*
X102093439Y-116969287D01*
X101861683Y-117514638D01*
X101602977Y-117981215D01*
X101319604Y-118371526D01*
X101013845Y-118688078D01*
X100687983Y-118933381D01*
X100344298Y-119109943D01*
X99985074Y-119220272D01*
X99612593Y-119266875D01*
X99229135Y-119252263D01*
X98836984Y-119178941D01*
X98438420Y-119049420D01*
X98035726Y-118866207D01*
X97631185Y-118631811D01*
X97227077Y-118348739D01*
X96825684Y-118019500D01*
X96429290Y-117646603D01*
X96040175Y-117232555D01*
X95660621Y-116779865D01*
X95292911Y-116291041D01*
X94939326Y-115768591D01*
X94602149Y-115215024D01*
X94283661Y-114632848D01*
X93986144Y-114024571D01*
X93711880Y-113392701D01*
X93463151Y-112739747D01*
X93242239Y-112068217D01*
X93051426Y-111380619D01*
X92892994Y-110679462D01*
X92769224Y-109967253D01*
X92682400Y-109246501D01*
X92611737Y-108551496D01*
X92534720Y-107913294D01*
X92451026Y-107329557D01*
X92360335Y-106797947D01*
X92262328Y-106316126D01*
X92156682Y-105881753D01*
X92043079Y-105492492D01*
X91921196Y-105146004D01*
X91790713Y-104839949D01*
X91651311Y-104571989D01*
X91502667Y-104339787D01*
X91344462Y-104141002D01*
X91176375Y-103973297D01*
X90998085Y-103834334D01*
X90809272Y-103721773D01*
X90609615Y-103633275D01*
X90398794Y-103566504D01*
X90176487Y-103519119D01*
X89942375Y-103488782D01*
X89696136Y-103473155D01*
X89165998Y-103476676D01*
X88583506Y-103510973D01*
X87251205Y-103597061D01*
X86496266Y-103611436D01*
X86095477Y-103603270D01*
X85678715Y-103581752D01*
X85279061Y-103574183D01*
X84928025Y-103608085D01*
X84622929Y-103681477D01*
X84361097Y-103792380D01*
X84139848Y-103938812D01*
X83956507Y-104118795D01*
X83808394Y-104330347D01*
X83692832Y-104571489D01*
X83607142Y-104840240D01*
X83548647Y-105134620D01*
X83514669Y-105452650D01*
X83502530Y-105792348D01*
X83533056Y-106528831D01*
X83618801Y-107328226D01*
X83870256Y-109052393D01*
X83993118Y-109945480D01*
X84085504Y-110838116D01*
X84125991Y-111714457D01*
X84093156Y-112558664D01*
X84042547Y-112963766D01*
X83965574Y-113354894D01*
X83859558Y-113730068D01*
X83721821Y-114087306D01*
X83349868Y-114820876D01*
X82860839Y-115601065D01*
X82268010Y-116382764D01*
X81584658Y-117120860D01*
X80824060Y-117770242D01*
X80418943Y-118047569D01*
X79999492Y-118285801D01*
X79567369Y-118479299D01*
X79124232Y-118622425D01*
X78671740Y-118709539D01*
X78211555Y-118735003D01*
X77745334Y-118693177D01*
X77274738Y-118578424D01*
X76801426Y-118385103D01*
X76327058Y-118107577D01*
X75853294Y-117740206D01*
X75381793Y-117277351D01*
X74914214Y-116713374D01*
X74452217Y-116042636D01*
X73997462Y-115259497D01*
X73551609Y-114358320D01*
X73116316Y-113333464D01*
X72693244Y-112179292D01*
X72284052Y-110890164D01*
X71890400Y-109460441D01*
X71513947Y-107884486D01*
X71156353Y-106156658D01*
X70855547Y-104356612D01*
X70644867Y-102569636D01*
X70519091Y-100798539D01*
X70472995Y-99046132D01*
X70501354Y-97315224D01*
X70598944Y-95608626D01*
X70760543Y-93929148D01*
X70980924Y-92279598D01*
X71254866Y-90662789D01*
X71577143Y-89081529D01*
X71942532Y-87538628D01*
X72345810Y-86036897D01*
X72781751Y-84579145D01*
X73245132Y-83168182D01*
X74233319Y-80497866D01*
X75268580Y-78048427D01*
X76309122Y-75842346D01*
X77313154Y-73902103D01*
X78238886Y-72250176D01*
X79044525Y-70909048D01*
X79688280Y-69901197D01*
X80322971Y-68975246D01*
X80351082Y-69003959D01*
X80385383Y-69034260D01*
X80432356Y-69070143D01*
X80491400Y-69107836D01*
X80561911Y-69143569D01*
X80643284Y-69173568D01*
X80687856Y-69185239D01*
X80734917Y-69194063D01*
X80784392Y-69199567D01*
X80836205Y-69201280D01*
X80890281Y-69198732D01*
X80946545Y-69191449D01*
X81004921Y-69178962D01*
X81065334Y-69160798D01*
X81127707Y-69136486D01*
X81191967Y-69105554D01*
X81258036Y-69067532D01*
X81325841Y-69021947D01*
X81395305Y-68968327D01*
X81466353Y-68906203D01*
X81538909Y-68835101D01*
X81612898Y-68754551D01*
X81688245Y-68664082D01*
X81764874Y-68563220D01*
X81856359Y-68457355D01*
X81975321Y-68352434D01*
X82289718Y-68146781D01*
X82696146Y-67948977D01*
X83182686Y-67761738D01*
X83737419Y-67587778D01*
X84348427Y-67429812D01*
X85003791Y-67290557D01*
X85691592Y-67172728D01*
X86399912Y-67079039D01*
X87116831Y-67012207D01*
X87830432Y-66974946D01*
X88528794Y-66969972D01*
X89200000Y-67000000D01*
M02*
